<svg width="675" height="675" viewBox="0 0 675 675" fill="none" xmlns="http://www.w3.org/2000/svg">
<path d="M337.5 0C151.403 0 0 151.403 0 337.5C0 523.598 151.403 675 337.5 675C523.598 675 675 523.598 675 337.5C675 151.403 523.598 0 337.5 0ZM337.5 472.5C263.048 472.5 202.5 411.953 202.5 337.5C202.5 263.048 263.048 202.5 337.5 202.5C411.953 202.5 472.5 263.048 472.5 337.5C472.5 411.953 411.953 472.5 337.5 472.5Z" fill="#373737"/>
<path d="M337.567 405.135C374.884 405.135 405.135 374.884 405.135 337.567C405.135 300.251 374.884 270 337.567 270C300.251 270 270 300.251 270 337.567C270 374.884 300.251 405.135 337.567 405.135Z" fill="#373737"/>
<path d="M85 338C77.8203 338 71.9666 332.176 72.32 325.005C74.5891 278.956 88.8858 234.21 113.897 195.242C138.923 156.251 173.718 124.535 214.753 103.161C221.108 99.8514 228.831 102.714 231.847 109.214L235.471 117.024C238.499 123.55 235.631 131.262 229.276 134.634C194.276 153.205 164.588 180.469 143.147 213.874C121.707 247.279 109.322 285.565 107.086 325.006C106.68 332.175 100.898 338 93.7182 338L85 338Z" fill="#444444"/>
</svg>
