<svg width="628" height="418" viewBox="0 0 628 418" fill="none" xmlns="http://www.w3.org/2000/svg">
<path d="M64.6591 334C55.5361 316.112 46.2343 295.183 36.7536 271.213C27.4518 247.243 18.5972 221.126 10.1898 192.863H52.5846C54.3734 199.839 56.4305 207.442 58.756 215.67C61.2603 223.72 63.7647 231.948 66.269 240.356C68.9522 248.584 71.546 256.634 74.0503 264.505C76.7335 272.376 79.3273 279.531 81.8316 285.97C84.1571 279.531 86.6614 272.376 89.3446 264.505C92.0279 256.634 94.6216 248.584 97.126 240.356C99.8092 231.948 102.314 223.72 104.639 215.67C107.143 207.442 109.29 199.839 111.079 192.863H152.4C143.993 221.126 135.049 247.243 125.568 271.213C116.266 295.183 107.054 316.112 97.9309 334H64.6591ZM213.793 334H173.813V192.863H213.793V334ZM217.55 152.078C217.55 159.412 215.135 165.226 210.305 169.519C205.654 173.633 200.109 175.69 193.669 175.69C187.23 175.69 181.595 173.633 176.765 169.519C172.114 165.226 169.789 159.412 169.789 152.078C169.789 144.744 172.114 139.02 176.765 134.905C181.595 130.612 187.23 128.466 193.669 128.466C200.109 128.466 205.654 130.612 210.305 134.905C215.135 139.02 217.55 144.744 217.55 152.078ZM452.537 334H412.557V192.863H452.537V334ZM456.293 152.078C456.293 159.412 453.878 165.226 449.048 169.519C444.398 173.633 438.852 175.69 432.413 175.69C425.973 175.69 420.338 173.633 415.508 169.519C410.857 165.226 408.532 159.412 408.532 152.078C408.532 144.744 410.857 139.02 415.508 134.905C420.338 130.612 425.973 128.466 432.413 128.466C438.852 128.466 444.398 130.612 449.048 134.905C453.878 139.02 456.293 144.744 456.293 152.078ZM488.777 197.693C495.574 195.725 504.339 193.936 515.072 192.326C525.805 190.537 537.075 189.643 548.881 189.643C560.866 189.643 570.794 191.253 578.664 194.473C586.714 197.514 593.064 201.896 597.715 207.621C602.366 213.345 605.676 220.142 607.643 228.013C609.611 235.884 610.595 244.649 610.595 254.309V334H570.615V259.138C570.615 246.259 568.915 237.136 565.517 231.77C562.118 226.403 555.768 223.72 546.466 223.72C543.604 223.72 540.563 223.899 537.343 224.257C534.123 224.435 531.261 224.704 528.757 225.061V334H488.777V197.693Z" fill="white"/>
<path d="M239.055 80.7099L287.885 62.148V261.909L239.055 257.152V80.7099Z" fill="#1DB954"/>
<path d="M194.664 74.5049C194.664 72.8046 195.653 71.26 197.198 70.5497L281.714 31.6919C284.598 30.366 287.886 32.4729 287.886 35.6471V69.119C287.886 70.7183 287.009 72.1888 285.601 72.949L201.086 118.607C198.185 120.174 194.664 118.073 194.664 114.777V74.5049Z" fill="#179042"/>
<path d="M194.664 61.1874C194.664 59.4872 195.653 57.9425 197.198 57.2323L281.714 18.3745C284.598 17.0486 287.886 19.1555 287.886 22.3297V55.8016C287.886 57.4009 287.009 58.8714 285.601 59.6316L201.086 105.289C198.185 106.856 194.664 104.756 194.664 101.459V61.1874Z" fill="#1DB954"/>
<path d="M351.921 202.334L282.548 175.346C243.92 194.748 224.446 258.549 251.919 301.037C267.274 324.784 308.641 342.208 336.04 337.681C346.238 335.995 355.923 331.533 364.277 324.76C372.81 317.9 379.744 308.785 384.493 298.284C389.242 287.783 391.666 276.168 391.561 264.394C391.68 250.672 387.904 237.212 380.777 226.057C373.651 214.901 363.545 206.621 351.921 202.334Z" fill="#1DB954"/>
<path d="M341.512 227.928L297.637 210.859C273.206 223.13 260.889 263.482 278.265 290.354C287.976 305.373 314.14 316.393 331.468 313.529C337.918 312.464 344.044 309.641 349.327 305.358C354.724 301.019 359.109 295.254 362.113 288.613C365.116 281.971 366.65 274.625 366.583 267.179C366.659 258.5 364.27 249.987 359.763 242.932C355.256 235.876 348.864 230.64 341.512 227.928Z" fill="#179042"/>
<path d="M334.854 216.83L290.978 199.761C266.548 212.032 254.231 252.384 271.607 279.256C281.318 294.275 307.481 305.295 324.809 302.432C331.259 301.366 337.385 298.543 342.668 294.26C348.065 289.921 352.45 284.156 355.454 277.515C358.458 270.873 359.991 263.527 359.925 256.081C360 247.402 357.611 238.889 353.104 231.834C348.597 224.778 342.205 219.542 334.854 216.83Z" fill="#7BEAA2"/>
<g style="mix-blend-mode:color-dodge">
<path d="M121.623 407.586C120.451 405.42 119.315 403.165 118.214 400.821C117.148 398.477 116.136 396.115 115.177 393.736C114.254 391.321 113.402 388.924 112.62 386.544C111.839 384.13 111.164 381.768 110.596 379.46H114.272C114.662 381.164 115.16 383.011 115.763 385C116.367 386.953 117.042 388.977 117.787 391.072C118.569 393.168 119.421 395.316 120.344 397.518C121.268 399.72 122.262 401.886 123.328 404.017C124.109 401.815 124.801 399.738 125.405 397.784C126.009 395.831 126.559 393.896 127.056 391.978C127.589 390.025 128.086 388.036 128.548 386.012C129.045 383.987 129.56 381.803 130.093 379.46H133.555C132.419 384.609 131.123 389.616 129.667 394.482C128.211 399.347 126.63 403.804 124.926 407.852C124.251 409.45 123.558 410.818 122.848 411.954C122.138 413.126 121.339 414.085 120.451 414.831C119.599 415.576 118.587 416.127 117.415 416.482C116.278 416.837 114.929 417.015 113.366 417.015C112.478 417.015 111.661 416.908 110.916 416.695C110.205 416.482 109.762 416.322 109.584 416.216L110.276 413.339C110.419 413.446 110.809 413.588 111.448 413.765C112.123 413.978 112.816 414.085 113.526 414.085C114.52 414.085 115.408 413.978 116.189 413.765C117.006 413.552 117.734 413.179 118.373 412.647C119.013 412.149 119.581 411.492 120.078 410.676C120.611 409.859 121.126 408.829 121.623 407.586ZM162.834 393.256C162.834 395.423 162.514 397.394 161.875 399.169C161.272 400.945 160.401 402.454 159.265 403.697C158.164 404.94 156.85 405.917 155.323 406.627C153.796 407.302 152.109 407.639 150.262 407.639C148.416 407.639 146.729 407.302 145.202 406.627C143.675 405.917 142.343 404.94 141.207 403.697C140.106 402.454 139.236 400.945 138.596 399.169C137.993 397.394 137.691 395.423 137.691 393.256C137.691 391.09 137.993 389.119 138.596 387.343C139.236 385.568 140.106 384.059 141.207 382.816C142.343 381.537 143.675 380.56 145.202 379.886C146.729 379.175 148.416 378.82 150.262 378.82C152.109 378.82 153.796 379.175 155.323 379.886C156.85 380.56 158.164 381.537 159.265 382.816C160.401 384.059 161.272 385.568 161.875 387.343C162.514 389.119 162.834 391.09 162.834 393.256ZM159.158 393.256C159.158 389.812 158.359 387.077 156.761 385.053C155.163 382.993 152.997 381.963 150.262 381.963C147.528 381.963 145.362 382.993 143.764 385.053C142.165 387.077 141.366 389.812 141.366 393.256C141.366 396.701 142.165 399.436 143.764 401.46C145.362 403.484 147.528 404.496 150.262 404.496C152.997 404.496 155.163 403.484 156.761 401.46C158.359 399.436 159.158 396.701 159.158 393.256ZM191.495 406.041C190.465 406.325 189.08 406.645 187.34 407C185.6 407.355 183.469 407.533 180.947 407.533C178.888 407.533 177.165 407.231 175.78 406.627C174.395 406.023 173.277 405.171 172.424 404.07C171.572 402.969 170.951 401.638 170.56 400.075C170.205 398.512 170.027 396.79 170.027 394.908V379.46H173.49V393.789C173.49 395.742 173.632 397.394 173.916 398.743C174.2 400.093 174.662 401.194 175.301 402.046C175.94 402.863 176.757 403.466 177.751 403.857C178.781 404.212 180.024 404.39 181.48 404.39C183.114 404.39 184.534 404.301 185.742 404.123C186.949 403.946 187.713 403.786 188.032 403.644V379.46H191.495V406.041ZM210.051 378.927C211.187 378.927 212.252 379.016 213.247 379.193C214.277 379.371 214.987 379.548 215.378 379.726L214.685 382.709C214.401 382.567 213.815 382.425 212.927 382.283C212.075 382.105 210.938 382.017 209.518 382.017C208.026 382.017 206.819 382.123 205.896 382.336C205.008 382.549 204.422 382.727 204.138 382.869V407H200.675V380.738C201.563 380.347 202.788 379.957 204.351 379.566C205.913 379.14 207.813 378.927 210.051 378.927ZM238.367 404.55C240.356 404.55 241.989 404.23 243.268 403.591C244.582 402.916 245.239 401.797 245.239 400.235C245.239 399.489 245.114 398.85 244.866 398.317C244.653 397.784 244.28 397.305 243.747 396.879C243.214 396.453 242.504 396.044 241.616 395.654C240.764 395.263 239.699 394.801 238.42 394.269C237.39 393.842 236.414 393.416 235.49 392.99C234.567 392.528 233.75 392.013 233.04 391.445C232.33 390.842 231.761 390.131 231.335 389.314C230.909 388.498 230.696 387.503 230.696 386.331C230.696 384.094 231.531 382.283 233.2 380.898C234.904 379.513 237.23 378.82 240.178 378.82C242.06 378.82 243.605 378.98 244.812 379.3C246.055 379.619 246.925 379.903 247.423 380.152L246.624 383.242C246.197 383.029 245.469 382.745 244.44 382.389C243.445 382.034 241.971 381.857 240.018 381.857C239.237 381.857 238.491 381.945 237.781 382.123C237.106 382.265 236.502 382.514 235.97 382.869C235.437 383.188 235.011 383.615 234.691 384.147C234.372 384.644 234.212 385.266 234.212 386.012C234.212 386.758 234.354 387.397 234.638 387.929C234.922 388.462 235.33 388.942 235.863 389.368C236.431 389.758 237.106 390.131 237.887 390.486C238.704 390.842 239.628 391.232 240.657 391.658C241.723 392.084 242.735 392.528 243.694 392.99C244.688 393.416 245.558 393.949 246.304 394.588C247.05 395.192 247.653 395.938 248.115 396.825C248.577 397.678 248.808 398.761 248.808 400.075C248.808 402.561 247.867 404.443 245.984 405.722C244.138 407 241.598 407.639 238.367 407.639C235.952 407.639 234.105 407.426 232.827 407C231.548 406.609 230.696 406.307 230.27 406.094L231.175 402.952C231.282 403.023 231.513 403.147 231.868 403.324C232.223 403.466 232.702 403.644 233.306 403.857C233.91 404.035 234.62 404.194 235.437 404.337C236.289 404.479 237.266 404.55 238.367 404.55ZM258.968 402.046C259.288 402.295 259.678 402.561 260.14 402.845C260.637 403.129 261.205 403.395 261.845 403.644C262.484 403.893 263.176 404.106 263.922 404.283C264.668 404.425 265.449 404.496 266.266 404.496C267.971 404.496 269.391 404.212 270.528 403.644C271.699 403.04 272.641 402.241 273.351 401.247C274.061 400.217 274.576 399.027 274.896 397.678C275.215 396.293 275.375 394.837 275.375 393.31C275.375 389.687 274.47 386.917 272.658 385C270.847 383.046 268.45 382.07 265.467 382.07C263.762 382.07 262.377 382.159 261.312 382.336C260.282 382.478 259.501 382.638 258.968 382.816V402.046ZM258.968 416.855H255.505V380.418C256.535 380.063 257.849 379.726 259.447 379.406C261.046 379.087 263.07 378.927 265.52 378.927C267.544 378.927 269.373 379.264 271.007 379.939C272.676 380.578 274.097 381.519 275.269 382.762C276.476 384.005 277.399 385.515 278.039 387.29C278.713 389.066 279.051 391.072 279.051 393.31C279.051 395.405 278.767 397.34 278.198 399.116C277.666 400.856 276.867 402.366 275.801 403.644C274.736 404.887 273.422 405.864 271.859 406.574C270.332 407.284 268.574 407.639 266.586 407.639C264.774 407.639 263.194 407.391 261.845 406.893C260.531 406.361 259.572 405.864 258.968 405.402V416.855ZM310.054 393.256C310.054 395.423 309.734 397.394 309.095 399.169C308.492 400.945 307.621 402.454 306.485 403.697C305.384 404.94 304.07 405.917 302.543 406.627C301.016 407.302 299.329 407.639 297.482 407.639C295.636 407.639 293.949 407.302 292.422 406.627C290.895 405.917 289.563 404.94 288.427 403.697C287.326 402.454 286.456 400.945 285.816 399.169C285.213 397.394 284.911 395.423 284.911 393.256C284.911 391.09 285.213 389.119 285.816 387.343C286.456 385.568 287.326 384.059 288.427 382.816C289.563 381.537 290.895 380.56 292.422 379.886C293.949 379.175 295.636 378.82 297.482 378.82C299.329 378.82 301.016 379.175 302.543 379.886C304.07 380.56 305.384 381.537 306.485 382.816C307.621 384.059 308.492 385.568 309.095 387.343C309.734 389.119 310.054 391.09 310.054 393.256ZM306.378 393.256C306.378 389.812 305.579 387.077 303.981 385.053C302.383 382.993 300.217 381.963 297.482 381.963C294.748 381.963 292.582 382.993 290.984 385.053C289.385 387.077 288.586 389.812 288.586 393.256C288.586 396.701 289.385 399.436 290.984 401.46C292.582 403.484 294.748 404.496 297.482 404.496C300.217 404.496 302.383 403.484 303.981 401.46C305.579 399.436 306.378 396.701 306.378 393.256ZM320.816 379.46H331.79V382.389H320.816V397.039C320.816 398.601 320.941 399.88 321.189 400.874C321.473 401.833 321.864 402.579 322.361 403.111C322.858 403.644 323.462 403.999 324.172 404.177C324.882 404.354 325.664 404.443 326.516 404.443C327.972 404.443 329.144 404.283 330.032 403.964C330.92 403.608 331.612 403.289 332.109 403.005L332.962 405.881C332.465 406.201 331.594 406.574 330.352 407C329.109 407.391 327.759 407.586 326.303 407.586C324.598 407.586 323.16 407.373 321.988 406.947C320.852 406.485 319.928 405.81 319.218 404.922C318.543 403.999 318.064 402.863 317.78 401.513C317.496 400.164 317.354 398.566 317.354 396.719V371.363L320.816 370.723V379.46ZM341.63 407H338.167V379.46H341.63V407ZM342.429 371.149C342.429 371.966 342.18 372.623 341.683 373.12C341.186 373.582 340.582 373.813 339.872 373.813C339.162 373.813 338.558 373.582 338.061 373.12C337.563 372.623 337.315 371.966 337.315 371.149C337.315 370.333 337.563 369.693 338.061 369.232C338.558 368.735 339.162 368.486 339.872 368.486C340.582 368.486 341.186 368.735 341.683 369.232C342.18 369.693 342.429 370.333 342.429 371.149ZM360.93 365.663C362.421 365.663 363.629 365.787 364.552 366.036C365.511 366.249 366.132 366.444 366.416 366.622L365.724 369.605C365.333 369.427 364.747 369.25 363.966 369.072C363.22 368.859 362.261 368.752 361.089 368.752C358.639 368.752 356.881 369.374 355.816 370.617C354.786 371.86 354.271 373.848 354.271 376.583V379.46H365.351V382.389H354.271V407H350.808V376.476C350.808 372.89 351.625 370.191 353.259 368.379C354.928 366.568 357.485 365.663 360.93 365.663ZM379.336 407.586C378.164 405.42 377.028 403.165 375.927 400.821C374.861 398.477 373.849 396.115 372.89 393.736C371.967 391.321 371.115 388.924 370.333 386.544C369.552 384.13 368.877 381.768 368.309 379.46H371.985C372.375 381.164 372.873 383.011 373.476 385C374.08 386.953 374.755 388.977 375.501 391.072C376.282 393.168 377.134 395.316 378.057 397.518C378.981 399.72 379.975 401.886 381.041 404.017C381.822 401.815 382.514 399.738 383.118 397.784C383.722 395.831 384.272 393.896 384.769 391.978C385.302 390.025 385.799 388.036 386.261 386.012C386.758 383.987 387.273 381.803 387.806 379.46H391.268C390.132 384.609 388.836 389.616 387.38 394.482C385.924 399.347 384.343 403.804 382.639 407.852C381.964 409.45 381.271 410.818 380.561 411.954C379.851 413.126 379.052 414.085 378.164 414.831C377.312 415.576 376.3 416.127 375.128 416.482C373.991 416.837 372.642 417.015 371.079 417.015C370.191 417.015 369.375 416.908 368.629 416.695C367.918 416.482 367.475 416.322 367.297 416.216L367.989 413.339C368.132 413.446 368.522 413.588 369.161 413.765C369.836 413.978 370.529 414.085 371.239 414.085C372.233 414.085 373.121 413.978 373.902 413.765C374.719 413.552 375.447 413.179 376.086 412.647C376.726 412.149 377.294 411.492 377.791 410.676C378.324 409.859 378.839 408.829 379.336 407.586ZM414.823 404.55C416.811 404.55 418.445 404.23 419.724 403.591C421.037 402.916 421.694 401.797 421.694 400.235C421.694 399.489 421.57 398.85 421.322 398.317C421.109 397.784 420.736 397.305 420.203 396.879C419.67 396.453 418.96 396.044 418.072 395.654C417.22 395.263 416.154 394.801 414.876 394.269C413.846 393.842 412.869 393.416 411.946 392.99C411.023 392.528 410.206 392.013 409.496 391.445C408.785 390.842 408.217 390.131 407.791 389.314C407.365 388.498 407.152 387.503 407.152 386.331C407.152 384.094 407.986 382.283 409.656 380.898C411.36 379.513 413.686 378.82 416.634 378.82C418.516 378.82 420.061 378.98 421.268 379.3C422.511 379.619 423.381 379.903 423.879 380.152L423.079 383.242C422.653 383.029 421.925 382.745 420.895 382.389C419.901 382.034 418.427 381.857 416.474 381.857C415.693 381.857 414.947 381.945 414.237 382.123C413.562 382.265 412.958 382.514 412.426 382.869C411.893 383.188 411.467 383.615 411.147 384.147C410.827 384.644 410.668 385.266 410.668 386.012C410.668 386.758 410.81 387.397 411.094 387.929C411.378 388.462 411.786 388.942 412.319 389.368C412.887 389.758 413.562 390.131 414.343 390.486C415.16 390.842 416.083 391.232 417.113 391.658C418.179 392.084 419.191 392.528 420.15 392.99C421.144 393.416 422.014 393.949 422.76 394.588C423.506 395.192 424.109 395.938 424.571 396.825C425.033 397.678 425.264 398.761 425.264 400.075C425.264 402.561 424.322 404.443 422.44 405.722C420.594 407 418.054 407.639 414.823 407.639C412.408 407.639 410.561 407.426 409.283 407C408.004 406.609 407.152 406.307 406.726 406.094L407.631 402.952C407.738 403.023 407.969 403.147 408.324 403.324C408.679 403.466 409.158 403.644 409.762 403.857C410.366 404.035 411.076 404.194 411.893 404.337C412.745 404.479 413.722 404.55 414.823 404.55ZM435.211 379.46H446.184V382.389H435.211V397.039C435.211 398.601 435.335 399.88 435.584 400.874C435.868 401.833 436.258 402.579 436.756 403.111C437.253 403.644 437.857 403.999 438.567 404.177C439.277 404.354 440.058 404.443 440.911 404.443C442.367 404.443 443.539 404.283 444.426 403.964C445.314 403.608 446.007 403.289 446.504 403.005L447.356 405.881C446.859 406.201 445.989 406.574 444.746 407C443.503 407.391 442.154 407.586 440.698 407.586C438.993 407.586 437.555 407.373 436.383 406.947C435.246 406.485 434.323 405.81 433.613 404.922C432.938 403.999 432.459 402.863 432.174 401.513C431.89 400.164 431.748 398.566 431.748 396.719V371.363L435.211 370.723V379.46ZM461.245 404.496C462.594 404.496 463.766 404.461 464.761 404.39C465.79 404.283 466.661 404.159 467.371 404.017V394.322C466.98 394.144 466.359 393.967 465.506 393.789C464.654 393.576 463.482 393.469 461.991 393.469C461.138 393.469 460.25 393.541 459.327 393.683C458.404 393.789 457.551 394.055 456.77 394.482C455.989 394.872 455.35 395.423 454.852 396.133C454.355 396.843 454.107 397.784 454.107 398.956C454.107 399.986 454.266 400.856 454.586 401.566C454.941 402.277 455.421 402.845 456.024 403.271C456.664 403.697 457.409 404.017 458.262 404.23C459.149 404.408 460.144 404.496 461.245 404.496ZM460.925 378.82C462.736 378.82 464.263 379.087 465.506 379.619C466.785 380.117 467.815 380.827 468.596 381.75C469.377 382.638 469.945 383.703 470.301 384.946C470.656 386.189 470.833 387.539 470.833 388.995V406.361C470.478 406.467 469.963 406.592 469.288 406.734C468.614 406.84 467.832 406.964 466.945 407.107C466.057 407.249 465.062 407.355 463.962 407.426C462.896 407.533 461.795 407.586 460.659 407.586C459.203 407.586 457.853 407.426 456.61 407.107C455.403 406.787 454.337 406.29 453.414 405.615C452.526 404.905 451.816 404.017 451.283 402.952C450.786 401.851 450.538 400.519 450.538 398.956C450.538 397.465 450.822 396.186 451.39 395.121C451.958 394.055 452.757 393.185 453.787 392.511C454.817 391.8 456.042 391.285 457.463 390.966C458.883 390.646 460.428 390.486 462.097 390.486C462.594 390.486 463.109 390.522 463.642 390.593C464.21 390.628 464.743 390.699 465.24 390.806C465.773 390.877 466.217 390.966 466.572 391.072C466.962 391.143 467.229 391.214 467.371 391.285V389.581C467.371 388.622 467.3 387.699 467.158 386.811C467.016 385.887 466.696 385.071 466.199 384.36C465.737 383.615 465.062 383.029 464.175 382.602C463.322 382.141 462.186 381.91 460.765 381.91C458.741 381.91 457.232 382.052 456.237 382.336C455.243 382.62 454.515 382.851 454.053 383.029L453.574 379.992C454.178 379.708 455.101 379.442 456.344 379.193C457.622 378.945 459.149 378.82 460.925 378.82ZM482.914 379.46H493.888V382.389H482.914V397.039C482.914 398.601 483.039 399.88 483.287 400.874C483.571 401.833 483.962 402.579 484.459 403.111C484.956 403.644 485.56 403.999 486.27 404.177C486.981 404.354 487.762 404.443 488.614 404.443C490.07 404.443 491.242 404.283 492.13 403.964C493.018 403.608 493.71 403.289 494.207 403.005L495.06 405.881C494.563 406.201 493.693 406.574 492.45 407C491.207 407.391 489.857 407.586 488.401 407.586C486.696 407.586 485.258 407.373 484.086 406.947C482.95 406.485 482.026 405.81 481.316 404.922C480.641 403.999 480.162 402.863 479.878 401.513C479.594 400.164 479.452 398.566 479.452 396.719V371.363L482.914 370.723V379.46ZM505.912 404.55C507.901 404.55 509.534 404.23 510.813 403.591C512.127 402.916 512.784 401.797 512.784 400.235C512.784 399.489 512.659 398.85 512.411 398.317C512.198 397.784 511.825 397.305 511.292 396.879C510.759 396.453 510.049 396.044 509.161 395.654C508.309 395.263 507.244 394.801 505.965 394.269C504.935 393.842 503.959 393.416 503.035 392.99C502.112 392.528 501.295 392.013 500.585 391.445C499.875 390.842 499.306 390.131 498.88 389.314C498.454 388.498 498.241 387.503 498.241 386.331C498.241 384.094 499.076 382.283 500.745 380.898C502.449 379.513 504.775 378.82 507.723 378.82C509.605 378.82 511.15 378.98 512.357 379.3C513.6 379.619 514.47 379.903 514.968 380.152L514.169 383.242C513.742 383.029 513.014 382.745 511.985 382.389C510.99 382.034 509.516 381.857 507.563 381.857C506.782 381.857 506.036 381.945 505.326 382.123C504.651 382.265 504.047 382.514 503.515 382.869C502.982 383.188 502.556 383.615 502.236 384.147C501.917 384.644 501.757 385.266 501.757 386.012C501.757 386.758 501.899 387.397 502.183 387.929C502.467 388.462 502.875 388.942 503.408 389.368C503.976 389.758 504.651 390.131 505.432 390.486C506.249 390.842 507.173 391.232 508.202 391.658C509.268 392.084 510.28 392.528 511.239 392.99C512.233 393.416 513.103 393.949 513.849 394.588C514.595 395.192 515.198 395.938 515.66 396.825C516.122 397.678 516.353 398.761 516.353 400.075C516.353 402.561 515.412 404.443 513.529 405.722C511.683 407 509.144 407.639 505.912 407.639C503.497 407.639 501.65 407.426 500.372 407C499.093 406.609 498.241 406.307 497.815 406.094L498.72 402.952C498.827 403.023 499.058 403.147 499.413 403.324C499.768 403.466 500.247 403.644 500.851 403.857C501.455 404.035 502.165 404.194 502.982 404.337C503.834 404.479 504.811 404.55 505.912 404.55Z" fill="white"/>
</g>
</svg>
