<svg width="238" height="237" viewBox="0 0 238 237" fill="none" xmlns="http://www.w3.org/2000/svg">
<path d="M118.92 19.7426C64.4897 19.7426 20.2068 64.0255 20.2068 118.456C20.2068 172.887 64.4897 217.17 118.92 217.17C173.351 217.17 217.634 172.887 217.634 118.456C217.634 64.0255 173.351 19.7426 118.92 19.7426ZM118.92 157.942C97.1441 157.942 79.4349 140.232 79.4349 118.456C79.4349 96.68 97.1441 78.9708 118.92 78.9708C140.697 78.9708 158.406 96.68 158.406 118.456C158.406 140.232 140.697 157.942 118.92 157.942Z" fill="#202020"/>
<path d="M118.9 138.199C129.815 138.199 138.663 129.351 138.663 118.436C138.663 107.522 129.815 98.674 118.9 98.674C107.986 98.674 99.1379 107.522 99.1379 118.436C99.1379 129.351 107.986 138.199 118.9 138.199Z" fill="#171717"/>
<path d="M43.0602 116.235C41.4484 116.128 40.2237 114.733 40.3851 113.126C41.9621 97.4201 47.7847 82.4186 57.2536 69.7434C66.7225 57.0681 79.4564 47.2296 94.07 41.2626C95.5654 40.6519 97.25 41.4309 97.81 42.946L99.6343 47.8816C100.194 49.3967 99.4175 51.0737 97.925 51.6917C85.3224 56.9101 74.3406 65.4369 66.1556 76.3935C57.9705 87.3501 52.9088 100.299 51.4793 113.865C51.3101 115.471 49.9223 116.692 48.3105 116.584L43.0602 116.235Z" fill="#595959"/>
</svg>
