<svg width="238" height="237" viewBox="0 0 238 237" fill="none" xmlns="http://www.w3.org/2000/svg">
<path d="M118.921 19.7427C64.4899 19.7427 20.207 64.0256 20.207 118.456C20.207 172.887 64.4899 217.17 118.921 217.17C173.351 217.17 217.634 172.887 217.634 118.456C217.634 64.0256 173.351 19.7427 118.921 19.7427ZM118.921 157.942C97.1443 157.942 79.4351 140.232 79.4351 118.456C79.4351 96.68 97.1443 78.9708 118.921 78.9708C140.697 78.9708 158.406 96.68 158.406 118.456C158.406 140.232 140.697 157.942 118.921 157.942Z" fill="#1DB954"/>
<path d="M118.901 138.199C129.815 138.199 138.663 129.351 138.663 118.436C138.663 107.522 129.815 98.674 118.901 98.674C107.986 98.674 99.1382 107.522 99.1382 118.436C99.1382 129.351 107.986 138.199 118.901 138.199Z" fill="#1DB954"/>
<path d="M43.0607 116.235C41.4489 116.128 40.2242 114.733 40.3856 113.126C41.9625 97.4201 47.7852 82.4186 57.2541 69.7434C66.723 57.0681 79.4569 47.2296 94.0705 41.2626C95.5659 40.6519 97.2505 41.4309 97.8105 42.946L99.6348 47.8816C100.195 49.3967 99.418 51.0737 97.9255 51.6917C85.3229 56.9101 74.3411 65.4369 66.1561 76.3935C57.971 87.3501 52.9093 100.299 51.4798 113.865C51.3105 115.471 49.9228 116.692 48.311 116.584L43.0607 116.235Z" fill="#2F2F2F"/>
</svg>
