<svg width="249" height="249" viewBox="0 0 249 249" fill="none" xmlns="http://www.w3.org/2000/svg">
<path d="M15.2916 135.593C13.956 136.525 13.0141 137.92 12.6484 139.507C12.2826 141.094 12.5191 142.761 13.312 144.184L29.4472 172.121C31.1031 174.985 34.9003 176.168 37.8759 174.711L87.153 150.844V218.344L112.053 195.133V138.768L162.737 114.204L130.118 57.681L15.2916 135.593ZM229.793 37.8108C223.083 26.208 212.041 17.7442 199.093 14.2797C186.146 10.8152 172.352 12.6335 160.745 19.335C149.415 25.8712 141.97 36.2545 138.322 47.833L175.374 112.025C187.214 114.665 199.938 113.395 211.292 106.858C222.901 100.155 231.373 89.1151 234.842 76.1662C238.312 63.2173 236.495 49.4204 229.793 37.8108Z" fill="#202020"/>
<path d="M213.521 46.0096C209.697 39.3967 203.404 34.5728 196.024 32.5983C188.645 30.6237 180.784 31.66 174.168 35.4795C167.711 39.2047 163.468 45.1226 161.389 51.7216L182.506 88.3073C189.254 89.8116 196.506 89.0878 202.977 85.3626C209.594 81.5422 214.422 75.2499 216.399 67.8698C218.377 60.4897 217.341 52.6264 213.521 46.0096Z" fill="#595959"/>
</svg>
