<svg width="25" height="25" viewBox="0 0 25 25" fill="none" xmlns="http://www.w3.org/2000/svg">
<path d="M11.9705 12.0272H3.95223C3.68641 12.0272 3.43148 12.1328 3.24351 12.3207C3.05555 12.5087 2.94995 12.7636 2.94995 13.0295V21.0477C2.94995 21.3135 3.05555 21.5684 3.24351 21.7564C3.43148 21.9444 3.68641 22.05 3.95223 22.05H11.9705C12.2363 22.05 12.4912 21.9444 12.6792 21.7564C12.8671 21.5684 12.9727 21.3135 12.9727 21.0477V13.0295C12.9727 12.7636 12.8671 12.5087 12.6792 12.3207C12.4912 12.1328 12.2363 12.0272 11.9705 12.0272ZM10.9682 20.0454H4.95451V14.0317H10.9682V20.0454ZM22.9153 2.62581C22.8136 2.3809 22.619 2.18628 22.3741 2.08458C22.2536 2.03322 22.1242 2.00598 21.9932 2.00439H15.9796C15.7137 2.00439 15.4588 2.10999 15.2708 2.29795C15.0829 2.48592 14.9773 2.74085 14.9773 3.00667C14.9773 3.27249 15.0829 3.52743 15.2708 3.71539C15.4588 3.90335 15.7137 4.00895 15.9796 4.00895H19.5777L14.2657 9.311C14.1717 9.40418 14.0972 9.51503 14.0463 9.63717C13.9954 9.7593 13.9692 9.89031 13.9692 10.0226C13.9692 10.1549 13.9954 10.2859 14.0463 10.4081C14.0972 10.5302 14.1717 10.6411 14.2657 10.7342C14.3588 10.8282 14.4697 10.9027 14.5918 10.9536C14.714 11.0045 14.845 11.0307 14.9773 11.0307C15.1096 11.0307 15.2406 11.0045 15.3627 10.9536C15.4849 10.9027 15.5957 10.8282 15.6889 10.7342L20.991 5.42216V9.02034C20.991 9.28616 21.0966 9.54109 21.2845 9.72906C21.4725 9.91702 21.7274 10.0226 21.9932 10.0226C22.2591 10.0226 22.514 9.91702 22.702 9.72906C22.8899 9.54109 22.9955 9.28616 22.9955 9.02034V3.00667C22.9939 2.8757 22.9667 2.7463 22.9153 2.62581Z" fill="#E7E7E7"/>
</svg>
