<svg width="249" height="249" viewBox="0 0 249 249" fill="none" xmlns="http://www.w3.org/2000/svg">
<path d="M15.2916 135.593C13.956 136.525 13.0141 137.92 12.6484 139.507C12.2826 141.095 12.5191 142.761 13.312 144.184L29.4472 172.121C31.1031 174.985 34.9003 176.168 37.8759 174.711L87.153 150.844V218.344L112.053 195.133V138.768L162.737 114.204L130.118 57.6811L15.2916 135.593ZM229.793 37.8109C223.083 26.2081 212.041 17.7443 199.093 14.2798C186.146 10.8153 172.352 12.6336 160.745 19.3351C149.415 25.8713 141.97 36.2546 138.322 47.8331L175.374 112.025C187.214 114.665 199.938 113.395 211.292 106.859C222.901 100.156 231.373 89.1152 234.842 76.1663C238.312 63.2174 236.495 49.4206 229.793 37.8109Z" fill="#1DB954"/>
<path d="M213.521 46.0097C209.697 39.3968 203.404 34.573 196.024 32.5984C188.645 30.6238 180.784 31.6602 174.168 35.4796C167.711 39.2049 163.468 45.1227 161.389 51.7218L182.506 88.3074C189.254 89.8117 196.506 89.088 202.977 85.3627C209.594 81.5424 214.422 75.25 216.399 67.8699C218.377 60.4899 217.341 52.6265 213.521 46.0097Z" fill="#2F2F2F"/>
</svg>
